# xmcd CD database file
#
# Track frame offsets:
#	150
#	22165
#	44385
#	69220
#	81435
#	96438
#	117528
#	131818
#	148785
#	167893
#	184683
#	213325
#	226795
#	244430
#	259315
#	286548
#	306230
#	341425
#
# Disc length: 4629 seconds
#
# Revision: 5
# Processed by: cddbd v1.5PL3 Copyright (c) Steve Scherf et al.
# Submitted via: CDex 1.51
#
DISCID=12121312
DTITLE=はっぴいえんど - はっぴいえんど　ライヴ・ヒストリー　〜レアリティーズ〜　VOL.1(はっぴいえんどBOX DISC 6)
DYEAR=1970
DGENRE=Rock
TTITLE0=十二月の雨の日
TTITLE1=春よ来い
TTITLE2=かくれんぼ
TTITLE3=朝
TTITLE4=十二月の雨の日
TTITLE5=春よ来い
TTITLE6=あやかしのどうぶつえん
TTITLE7=いらいら
TTITLE8=雨あがりのビル街
TTITLE9=しんしんしん
TTITLE10=かくれんぼ
TTITLE11=抱きしめたい
TTITLE12=朝
TTITLE13=十二月の雨の日
TTITLE14=かくれんぼ
TTITLE15=はいからはくち
TTITLE16=春よ来い
TTITLE17=はっぴいえんど写真館　#1
EXTD=YEAR: 1970
EXTT0=
EXTT1=
EXTT2=
EXTT3=
EXTT4=
EXTT5=
EXTT6=
EXTT7=
EXTT8=
EXTT9=
EXTT10=
EXTT11=
EXTT12=
EXTT13=
EXTT14=
EXTT15=
EXTT16=
EXTT17=
PLAYORDER=
